PathFileType	4	(X/Y/Z)	C:/Users/beibeiliu/ov580/test_trc/User2\sequence.18_training_dense_left.trc
DataRate	CameraRate	NumFrames	NumMarkers	Units	OrigDataRate	OrigDataStartFrame	OrigNumFrames
120	120	23	19	mm	120	1	57
Frame#	Time	ThumbCMC			ThumbMCP			ThumbIP			ThumbTip			IndexMCP			IndexPIP			IndexTip			MiddleMCP			MiddlePIP			MiddleTip			RingMCP			RingPIP			RingTip			PinkyMCP			PinkyPIP			PinkyTip			BackHand1			BackHand2			BackHand3	
		X0	Y0	Z0	X1	Y1	Z1	X2	Y2	Z2	X3	Y3	Z3	X4	Y4	Z4	X5	Y5	Z5	X6	Y6	Z6	X7	Y7	Z7	X8	Y8	Z8	X9	Y9	Z9	X10	Y10	Z10	X11	Y11	Z11	X12	Y12	Z12	X13	Y13	Z13	X14	Y14	Z14	X15	Y15	Z15	X16	Y16	Z16	X17	Y17	Z17	X18	Y18	Z18	
0	0	-291.559	38.927	-11.4788	-268.903	63.56	-37.5597	-241.504	70.7614	-63.9291	-213.075	54.1796	-74.0492	-285.996	2.22702	-84.2578	-289.765	3.16437	-111.388	-291.166	0.525811	-143.73	-263.984	-10.7738	-89.46	-259.429	-13.1093	-121.485	-252.259	-13.044	-152.664	-238.119	-9.5012	-84.5906	-229.854	-6.88389	-107.784	-220.32	2.11662	-134.774	-210.147	6.85879	-65.3781	-204.814	36.669	-70.3805	-220.094	53.0164	-45.1811	-249.353	-19.2573	-28.6598	-256.635	-22.2409	9.19594	-285.236	-8.91484	-16.8232	
1	0.00833333	-297.205	31.281	-15.3074	-278.151	50.9844	-46.7143	-253.217	48.8903	-71.8226	-228.528	31.8624	-83.6713	-307.154	-16.9729	-80.2133	-314.718	-21.9135	-109.277	-318.653	-26.0307	-138.448	-289.005	-33.5315	-85.9527	-289.736	-40.7984	-113.23	-285.859	-46.197	-147.842	-256.251	-34.9876	-80.743	-254.76	-33.9059	-108.294	-246.691	-29.3431	-141.876	-230.974	-16.0315	-67.3424	-221.728	17.7144	-79.684	-229.717	35.9108	-57.3295	-261.906	-31.0332	-22.1795	-267.924	-28.8029	9.89878	-297.673	-15.1773	-13.6032	
2	0.0166667	-302.408	28.6709	-15.8193	-284.315	41.8714	-49.2635	-261.134	34.701	-83.6154	-243.222	16.7606	-89.3092	-331.928	-24.7718	-76.1478	-337.646	-33.136	-98.812	-348.486	-37.1785	-124.721	-309.535	-46.8257	-74.6966	-317.759	-57.5847	-104.636	-321.933	-65.3478	-135.497	-283.02	-48.7622	-74.386	-279.931	-55.3835	-108.037	-274.464	-54.6899	-137.349	-248.176	-35.2965	-70.4126	-237.512	-5.50816	-86.0579	-243.237	16.1863	-65.0866	-276.647	-40.4307	-19.1149	-278.204	-30.6573	12.1917	-307.264	-17.6326	-6.35993	
3	0.025	-305.337	31.1842	-22.7658	-284.546	35.3414	-54.6179	-266.135	24.4641	-85.1791	-251.477	3.87274	-94.323	-344.888	-21.4649	-71.3029	-360.274	-26.079	-95.3728	-365.032	-35.063	-116.91	-330.92	-43.3184	-67.2963	-344.095	-57.794	-97.811	-350.896	-68.393	-125.757	-305.782	-54.4814	-71.113	-305.682	-64.2683	-100.46	-305.216	-64.6836	-126.719	-270.319	-44.4385	-67.0135	-256.33	-21.5262	-89.5348	-250.914	4.70234	-71.6601	-293.288	-41.1242	-18.9826	-287.137	-32.9451	13.9553	-318.66	-12.8935	-6.1955	
4	0.0333333	-298.065	35.4334	-18.4892	-279.566	35.2129	-57.5769	-263.863	21.3396	-86.9009	-255.427	-7.21363	-96.3213	-352.049	-1.50994	-66.9166	-365.176	-5.3475	-89.3369	-379.018	-8.65491	-112.73	-349.705	-29.7128	-67.6423	-364.046	-39.0217	-95.5779	-374.222	-48.3851	-118.249	-320.568	-50.5583	-66.0956	-329.778	-57.4582	-96.8114	-327.926	-61.3586	-126.368	-282.275	-50.106	-67.2423	-269.163	-29.8789	-88.1138	-254.641	-4.31879	-72.6714	-306.845	-36.7736	-15.1746	-301.506	-23.9537	14.4186	-322.329	-1.79136	-5.09831	
5	0.0416667	-290.758	42.0393	-20.124	-272.567	39.1197	-54.5714	-263.866	16.9918	-84.9855	-261.296	-9.68422	-94.7772	-349.512	23.8775	-65.0177	-365.048	21.156	-92.245	-377.406	24.9132	-111.85	-353.691	-8.82659	-67.0787	-370.889	-9.96526	-91.965	-384.966	-18.3078	-117.704	-334.98	-33.7012	-63.9592	-345.758	-39.7561	-93.8914	-347.19	-42.3239	-120.653	-300.265	-41.985	-65.6142	-280.997	-29.7847	-87.1675	-259.333	-10.8365	-70.4164	-316.215	-20.5378	-11.3217	-306.315	-15.6224	17.3441	-322.608	16.7306	-2.81251	
6	0.05	-278.28	50.7419	-15.6868	-263.028	42.5994	-52.7055	-260.84	21.4486	-78.9336	-270.639	-4.0149	-90.2657	-343.466	50.7067	-64.964	-351.932	60.2223	-84.027	-365.845	64.3525	-107.5	-355.668	23.6839	-63.8394	-370.482	30.5894	-86.0645	-389.832	31.822	-114.125	-344.682	-0.663128	-59.6145	-358.627	-4.2787	-87.8774	-365.384	-1.83961	-120.399	-316.972	-26.1236	-65.1094	-290.702	-18.4928	-87.2621	-267.03	-9.8052	-69.9194	-321.409	-1.59372	-10.0688	-312.007	-4.14575	20.8732	-318.182	31.2176	3.20895	
7	0.0583333	-260.872	51.3855	-6.03853	-251.908	41.4109	-46.0692	-262.489	25.3949	-81.5988	-281.645	5.41713	-91.761	-322.721	82.3261	-54.3838	-329.808	98.0887	-77.739	-340.601	105.779	-96.8581	-344.929	63.612	-53.9669	-359.45	76.1704	-76.0534	-374.972	91.1459	-105.117	-346.034	36.2937	-54.4358	-361.74	38.538	-81.4074	-367.569	45.4437	-108.888	-331.868	5.11674	-64.222	-309.281	3.14354	-86.0442	-278.793	-3.57353	-68.9404	-326.116	16.4983	-5.94668	-315.953	13.1079	22.4068	-306.351	51.7966	8.72715	
8	0.0666667	-247.354	45.429	-5.69683	-245.516	36.2901	-45.044	-261.552	27.2343	-74.9414	-289.343	18.3705	-86.1392	-291.557	99.3292	-44.7514	-295.68	120.247	-68.3009	-298.684	138.336	-88.5065	-318.442	90.2097	-43.5435	-333.281	111.856	-68.7085	-341.387	129.639	-91.5196	-333.716	67.6871	-48.8865	-345.638	78.5885	-72.5136	-348.338	92.4062	-101.469	-331.006	36.1348	-53.7935	-313.955	32.3018	-82.7974	-289.886	8.61042	-73.7707	-317.431	40.6461	-3.51257	-309.886	27.5243	27.6182	-287.002	59.2447	12.9109	
9	0.075	-234.817	34.0862	-3.37753	-232.497	27.4806	-46.9073	-251.127	24.9528	-76.9249	-281.218	23.4218	-82.6253	-259.076	100.81	-43.9572	-261.146	118.163	-62.6703	-261.232	138.514	-83.534	-287.057	102.418	-42.2443	-292.203	125.316	-63.1597	-298.836	144.716	-86.5154	-306.603	86.0469	-46.2812	-318.588	98.0401	-66.9243	-318.666	112.144	-95.6106	-312.783	55.3411	-46.575	-303.462	47.4647	-80.1621	-289.923	19.8883	-73.0178	-304.038	51.9727	-0.095729	-298.015	41.0174	27.1571	-264.938	60.5844	14.8383	
10	0.0833333	-220.127	22.5358	-5.21512	-222.246	14.3163	-44.1366	-244.481	16.0754	-74.4926	-273.965	21.9172	-82.4035	-234.526	88.1216	-49.6895	-227.941	104.474	-69.0254	-227.287	123.751	-92.7029	-259.992	96.5467	-48.8469	-259.908	115.439	-70.0078	-265.495	135.71	-94.0205	-287.725	81.6169	-48.1372	-290.217	97.2765	-70.538	-288.102	111.115	-100.192	-296.019	55.5655	-47.408	-290.052	43.1582	-79.7413	-283.035	14.0656	-68.8359	-285.075	53.7542	0.035141	-280.082	43.4181	26.2131	-246.864	55.3431	12.4508	
11	0.0916667	-210.771	6.48972	0.063317	-210.212	-6.27813	-41.264	-233.546	-4.79746	-71.1085	-262.431	3.14987	-74.861	-213.549	67.1623	-56.8863	-206.505	80.4656	-80.446	-204.581	92.2152	-101.855	-239.967	75.7383	-55.9648	-239.776	94.3454	-83.231	-239.229	111.772	-111.027	-267.889	65.6547	-52.8148	-267.532	77.6432	-78.6852	-270.223	86.4067	-106.697	-279.763	42.3587	-54.8086	-277.963	22.4609	-76.9292	-274.706	-7.52271	-58.6493	-267.947	49.4682	-2.91883	-265.651	40.7196	28.2678	-227.04	44.4921	7.18027	
12	0.1	-201.794	-1.42915	0.793893	-206.449	-22.3305	-30.5423	-227.366	-29.9716	-62.0807	-256.552	-21.6587	-70.027	-202.735	44.2405	-64.3989	-194.707	50.5245	-88.1609	-192.943	57.186	-111.607	-228.56	53.4755	-65.6894	-229.921	64.6263	-96.4174	-231.491	73.6501	-122.616	-260.608	45.4422	-59.5169	-258.516	50.5611	-89.3455	-262.117	51.8202	-117.125	-277.105	19.9119	-51.3927	-273.538	-5.74302	-71.2208	-263.213	-29.7308	-46.0487	-253.854	36.9007	-7.60161	-252.009	34.9488	28.6552	-218.718	34.8538	7.13998	
13	0.108333	-193.172	-8.52109	8.94597	-196.162	-37.8068	-22.5584	-219.224	-52.0134	-49.0328	-249.92	-48.4456	-55.4232	-205.086	22.1477	-66.0607	-196.49	23.1568	-90.903	-191.724	24.5363	-121.399	-229.49	29.6412	-73.1933	-228.67	30.7613	-103.513	-230.507	31.9638	-131.287	-256.503	19.448	-65.1005	-259.815	16.4687	-89.2421	-260.79	10.1552	-118.565	-269.69	-6.27509	-52.2894	-265.204	-39.2655	-58.3764	-251.991	-49.7828	-32.0243	-252.121	24.1551	-9.65764	-249.152	32.127	23.395	-215.56	31.496	5.98858	
14	0.116667	-187.566	-2.0198	11.3774	-183.029	-38.2883	-7.07172	-200.03	-65.4853	-29.2169	-230.683	-68.8029	-36.5132	-204.583	7.6833	-70.2441	-197.318	3.79516	-93.7815	-191.085	-0.900492	-121.195	-229.496	6.54371	-72.41	-228.686	0.431727	-103.754	-232.489	-7.05392	-137.512	-253.476	-7.58584	-64.4751	-255.458	-18.0648	-90.0161	-252.501	-30.2989	-113.813	-265.77	-33.7601	-46.0781	-252.358	-62.096	-47.0661	-235.07	-66.7532	-14.1983	-257.494	12.68	-9.10673	-252.346	24.222	18.7375	-221.336	28.4435	-0.952089	
15	0.125	-187.138	13.2903	14.008	-172.132	-22.8858	1.01642	-177.547	-57.4393	-18.0021	-201.877	-71.5426	-21.9485	-198.151	7.94627	-67.0821	-186.671	3.2426	-91.5705	-182.153	-6.3112	-120.563	-226.04	-4.49762	-70.9375	-217.616	-14.335	-104.489	-216.735	-25.9112	-130.082	-242.813	-22.9538	-60.6293	-236.671	-36.5848	-84.1363	-230.386	-53.7548	-107.369	-246.943	-48.4992	-39.0659	-222.381	-69.5461	-35.7552	-206.923	-64.6655	-5.87478	-252.664	2.19087	-13.5734	-257.806	20.0065	15.0727	-225.875	31.7848	-7.67236	
16	0.133333	-195.536	39.5901	13.4589	-164.095	9.97115	1.131	-156.103	-21.9497	-9.94628	-177.159	-46.7125	-16.6461	-197.983	19.6332	-65.6406	-183.197	13.7759	-93.0175	-173.087	8.99591	-115.546	-216.677	-4.67485	-68.6507	-205.867	-14.9631	-100.114	-196.641	-25.7172	-125.629	-221.817	-23.9995	-59.616	-212.73	-40.5148	-82.4259	-195.756	-54.566	-104.697	-217.606	-47.5736	-34.8048	-188.968	-58.0615	-31.314	-175.73	-46.5581	-4.57513	-249.067	-2.13738	-11.1691	-261.369	13.4138	9.07073	-236.982	33.4177	-11.6763	
17	0.141667	-214.728	63.6653	6.65171	-176.528	56.3273	-1.23837	-153.281	28.5278	-12.7762	-159.288	-4.21064	-15.2065	-203.472	41.7572	-67.7825	-186.525	39.3033	-94.9845	-173.279	39.1288	-116.225	-206.214	9.29507	-73.7598	-192.295	5.86804	-99.7521	-175.135	-4.47478	-128.739	-203.241	-14.2605	-58.1683	-188.213	-22.465	-78.6108	-163.589	-22.9719	-100.68	-193.55	-26.944	-32.4222	-158.546	-28.4055	-38.0584	-142.674	-12.3186	-21.4811	-235.636	-1.306	-14.6913	-255.602	2.91152	7.89836	-246.143	32.6044	-13.0081	
18	0.15	-236.517	72.6399	1.22614	-203.917	84.6809	-10.6375	-167.631	66.8314	-24.164	-163.206	39.0306	-17.1385	-212.804	55.0202	-69.3535	-201.387	61.8042	-96.8771	-185.679	64.652	-120.394	-202.748	27.7358	-72.3102	-185.002	27.4894	-104.512	-170.381	28.4739	-126.607	-187.878	8.24456	-56.2727	-168.38	5.09959	-80.8436	-146.906	13.0844	-104.58	-174.155	-2.09755	-30.9353	-146.18	3.05539	-50.2122	-126.575	20.7614	-51.4677	-220.062	7.10241	-12.7368	-241.002	-0.671451	10.0467	-244.414	30.0784	-11.8385	
19	0.158333	-246.746	67.9517	2.40563	-222.471	92.45	-18.5019	-186.961	84.0181	-30.5601	-168.252	58.7494	-24.5307	-223.194	55.234	-75.7324	-218.996	63.7175	-97.916	-207.059	72.8801	-125.343	-205.365	34.0896	-77.3823	-196.697	40.9385	-106.335	-180.096	44.3837	-132.589	-182.623	20.612	-62.0379	-171.456	24.3456	-83.4988	-154.27	34.9205	-111.432	-167.971	14.4564	-31.469	-146.882	15.175	-53.5192	-126.783	26.2796	-70.3474	-210.639	11.3687	-15.9932	-227.937	3.00652	13.7349	-247.06	29.3843	-11.9707	
20	0.166667	-252.437	63.6704	6.43522	-232.422	89.5357	-21.6535	-197.054	85.1554	-37.7281	-176.533	61.0779	-29.3602	-236.407	52.3434	-71.0963	-233.684	59.7618	-102.614	-228.304	69.1245	-130.2	-213.601	33.6247	-75.6353	-211.382	40.0656	-107.944	-198.454	45.8978	-139.279	-191.321	25.1192	-62.9811	-180.105	27.3014	-93.2067	-172.283	39.1777	-117.696	-171.616	21.7683	-37.8338	-154.962	21.0082	-60.0841	-143.25	23.1073	-82.8332	-210.006	15.3418	-15.0831	-222.884	4.35268	10.4843	-244.519	24.5823	-12.5247	
21	0.175	-260.478	59.6699	2.38091	-244.628	84.6493	-20.9388	-210.416	80.9318	-43.4357	-189.492	61.68	-36.3751	-252.455	45.4242	-73.9992	-256.335	51.3534	-100.913	-254.004	57.8285	-128.363	-233.223	28.3688	-81.0943	-227.522	30.7368	-112.954	-222.007	35.8129	-141.659	-206.394	20.7148	-66.3914	-200.374	22.1101	-97.9204	-193.111	29.8039	-124.316	-183.541	19.1152	-47.6667	-171.054	16.4909	-71.4578	-161.667	13.129	-89.8143	-217.732	11.8724	-18.5408	-226.641	0.232402	13.0581	-252.863	20.2176	-9.56131	
22	0.183333	-270.155	53.4987	1.85754	-253.826	71.2744	-30.5822	-223.442	65.798	-54.1294	-201.787	41.4248	-47.6891	-273.755	33.299	-72.4204	-277.57	35.8375	-102.473	-276.978	40.5771	-129.994	-253.061	15.2944	-82.1365	-248.941	13.2506	-112.362	-246.771	15.7495	-149.141	-229.28	8.9014	-70.6368	-223.123	4.43008	-100.753	-223.307	11.933	-130.438	-200.918	4.25849	-53.3431	-192.417	-0.52747	-79.4984	-187.244	-8.58025	-98.1555	-230.601	-0.243884	-21.7462	-239.469	-9.90267	11.0067	-268.134	11.4683	-10.4838	
